<svg width="36" height="36" viewBox="0 0 36 36" fill="none" xmlns="http://www.w3.org/2000/svg">
<g id="wallet(1) 1">
<g id="Group">
<path id="Vector" d="M0 28.2832C0 21.4541 0 14.625 0 7.79592C0.0175781 7.75198 0.0527344 7.71682 0.0527344 7.67288C0.307617 5.44046 2.27637 3.16409 5.35254 3.17288C13.7637 3.18167 22.166 3.17288 30.5771 3.19046C31.1836 3.19046 31.8252 3.27835 32.4053 3.47171C34.5674 4.19241 35.9209 6.13479 35.9297 8.43753C35.9385 12.3311 35.9297 16.2246 35.9297 20.1182C35.9297 22.6319 35.9385 25.1455 35.9297 27.6592C35.9121 30.4541 33.8818 32.6778 31.1133 32.8448C29.5752 32.9414 28.0283 32.8887 26.4814 32.8887C19.4502 32.8887 12.4277 32.8975 5.39648 32.8887C3.12891 32.8887 1.4502 31.8692 0.46582 29.8037C0.237305 29.3379 0.149414 28.793 0 28.2832ZM33.8291 12.8496C33.8379 12.7442 33.8555 12.6739 33.8555 12.6035C33.8555 11.2237 33.8643 9.84378 33.8555 8.46389C33.8555 8.18264 33.8291 7.90139 33.7588 7.62893C33.3545 6.126 32.1855 5.25588 30.5684 5.25588C22.1748 5.25588 13.7725 5.25588 5.37891 5.25588C3.41016 5.25588 2.08301 6.55667 2.08301 8.52542C2.07422 14.8623 2.07422 21.1992 2.0918 27.5449C2.0918 28.0547 2.20605 28.6084 2.41699 29.0655C3.00586 30.2959 4.06055 30.8233 5.40527 30.8233C13.7812 30.8233 22.1572 30.8233 30.5244 30.8233C30.6914 30.8233 30.8496 30.8233 31.0166 30.8057C32.5547 30.6563 33.7588 29.4785 33.8203 27.9405C33.8818 26.4463 33.8467 24.9434 33.8555 23.4492C33.8555 23.3877 33.8379 23.3174 33.8203 23.2383C33.6621 23.2383 33.5215 23.2383 33.3809 23.2383C31.0342 23.2383 28.6787 23.2559 26.332 23.2383C22.9658 23.2119 20.5488 20.2764 21.1904 17.0157C21.665 14.5987 23.792 12.8848 26.3672 12.876C28.7139 12.8672 31.0693 12.876 33.416 12.876C33.5479 12.8496 33.6885 12.8496 33.8291 12.8496ZM33.8291 21.1201C33.8291 19.0371 33.8291 16.9981 33.8291 14.9326C33.6709 14.9326 33.5303 14.9326 33.3896 14.9326C31.1133 14.9326 28.8281 14.9326 26.5518 14.9326C26.332 14.9326 26.1035 14.9414 25.8838 14.959C23.7832 15.1612 22.5 17.5782 23.4932 19.4326C24.1172 20.5928 25.1103 21.1377 26.4111 21.1377C28.7754 21.1377 31.1309 21.1377 33.4951 21.1377C33.6006 21.1377 33.7061 21.1289 33.8291 21.1201Z" fill="#6FC287"/>
<path id="Vector_2" d="M26.9473 16.998C27.1846 16.998 27.4131 16.9805 27.6504 16.998C28.248 17.042 28.6699 17.4814 28.6699 18.0352C28.6699 18.5977 28.2393 19.0371 27.6416 19.0723C27.1758 19.0986 26.71 19.0986 26.2441 19.0723C25.6465 19.0459 25.2246 18.5889 25.2246 18.0352C25.2246 17.4727 25.6553 17.042 26.2529 16.998C26.4814 16.9805 26.7188 16.998 26.9473 16.998Z" fill="#6FC287"/>
</g>
</g>
</svg>
