<svg width="36" height="36" viewBox="0 0 36 36" fill="none" xmlns="http://www.w3.org/2000/svg">
<g id="car 1">
<g id="Group">
<g id="Group_2">
<path id="Vector" d="M15.9436 14.4001C15.9436 14.2037 15.9436 14.0728 15.9436 13.9326C15.9436 10.931 15.9343 7.92943 15.9436 4.93723C15.9436 3.36632 16.9254 2.18814 18.4309 1.92632C18.6273 1.88892 18.8236 1.88892 19.02 1.88892C22.4517 1.88892 25.8834 1.88892 29.315 1.88892C31.1665 1.88892 32.4101 3.13255 32.4101 4.98398C32.4101 9.69671 32.4101 14.4094 32.4195 19.1315C32.4195 19.8983 32.195 20.5715 31.7182 21.1887C32.0735 21.3663 32.4101 21.5346 32.7374 21.7123C33.766 22.2733 34.327 23.1429 34.3457 24.3118C34.3737 25.677 34.3737 27.0422 34.3457 28.4074C34.3176 30.1092 33.0553 31.3435 31.3535 31.3715C30.7457 31.3809 30.1379 31.3809 29.5301 31.3715C29.3337 31.3715 29.2215 31.4183 29.128 31.6146C28.3332 33.3164 26.9867 34.2609 25.1073 34.2422C23.2371 34.2328 21.9093 33.2884 21.1239 31.6053C21.0397 31.4276 20.9462 31.3715 20.7592 31.3715C18.5431 31.3809 16.327 31.3809 14.1109 31.3715C13.9145 31.3715 13.8304 31.437 13.7462 31.6053C12.9421 33.2977 11.6143 34.2515 9.72544 34.2422C7.85531 34.2235 6.51817 33.2884 5.72336 31.6053C5.62986 31.4183 5.527 31.3622 5.33063 31.3528C4.807 31.3435 4.27401 31.3622 3.76908 31.2593C2.54414 31.0068 1.59973 29.997 1.53427 28.744C1.45947 27.2666 1.45012 25.7798 1.53427 24.3024C1.59973 23.0494 2.48804 22.0863 3.71297 21.7684C5.46154 21.3102 7.21011 20.8801 8.96804 20.45C9.36076 20.3564 9.62258 20.132 9.80025 19.7767C10.3987 18.5611 11.0065 17.3549 11.6049 16.1487C12.1847 14.9705 13.1197 14.3907 14.4288 14.3907C14.9057 14.4001 15.3919 14.4001 15.9436 14.4001ZM20.7779 29.305C20.9462 28.2484 21.3857 27.332 22.1899 26.612C23.0034 25.8827 23.9571 25.4993 25.0512 25.4806C25.9488 25.4619 26.781 25.6957 27.5291 26.1913C28.6512 26.9393 29.2683 28.0053 29.4927 29.3237C30.1005 29.3237 30.6709 29.3237 31.2413 29.3237C31.9613 29.3144 32.3073 28.9777 32.3073 28.239C32.3166 26.9861 32.2979 25.7424 32.3166 24.4894C32.3166 23.9939 32.1202 23.6479 31.6714 23.4328C31.0262 23.1242 30.3997 22.797 29.7639 22.479C29.0719 22.1424 28.5576 21.6281 28.2117 20.9268C27.5758 19.6271 26.9119 18.3461 26.2667 17.0463C26.061 16.6255 25.7525 16.4198 25.2756 16.4198C21.6569 16.4292 18.0382 16.4292 14.4288 16.4198C13.9519 16.4198 13.6434 16.6068 13.4283 17.037C12.9701 17.9907 12.4839 18.9352 12.0163 19.8889C11.9789 19.9637 11.9509 20.0479 11.9041 20.1601C12.0818 20.1601 12.2127 20.1601 12.353 20.1601C15.7099 20.1601 19.0761 20.1601 22.433 20.1601C22.5732 20.1601 22.7135 20.1507 22.8538 20.1694C23.3493 20.2349 23.7047 20.6276 23.7327 21.1138C23.7608 21.6094 23.4522 22.0396 22.9847 22.1611C22.8257 22.1985 22.6574 22.1985 22.4984 22.1985C18.7301 22.1985 14.9618 22.1985 11.1935 22.1985C10.6138 22.1985 10.0527 22.2453 9.47297 22.4042C7.75245 22.8811 6.02258 23.2832 4.29271 23.7227C3.79713 23.8536 3.53531 24.1248 3.52596 24.5923C3.50726 25.8733 3.50726 27.1637 3.52596 28.4448C3.53531 28.931 3.85323 29.2489 4.33947 29.2957C4.67609 29.3237 5.01271 29.305 5.33999 29.305C5.79817 26.6401 7.95817 25.4619 9.68804 25.4619C11.8761 25.4619 13.3815 26.7429 14.1015 29.2957C16.327 29.305 18.5338 29.305 20.7779 29.305ZM17.9727 14.4001C18.1597 14.4001 18.3 14.4001 18.4402 14.4001C20.6938 14.4001 22.9379 14.4094 25.1914 14.4001C26.5379 14.3907 27.501 14.9798 28.0995 16.1954C28.6699 17.3455 29.2496 18.4863 29.82 19.6271C29.8761 19.7393 29.9415 19.8422 30.007 19.9637C30.3249 19.7206 30.3623 19.412 30.3623 19.0754C30.3623 14.4001 30.3623 9.72476 30.3623 5.04008C30.3623 4.24528 30.035 3.91801 29.2309 3.91801C25.8647 3.91801 22.4891 3.91801 19.1228 3.91801C18.2719 3.91801 17.9634 4.22658 17.9634 5.06814C17.9634 8.04164 17.9634 11.0152 17.9634 13.9887C17.9727 14.1102 17.9727 14.2318 17.9727 14.4001ZM9.72544 27.5097C8.4257 27.519 7.37843 28.557 7.37843 29.838C7.37843 31.1658 8.43505 32.2224 9.75349 32.2131C11.0439 32.2037 12.0912 31.1284 12.0818 29.8287C12.0818 28.5383 11.0252 27.5097 9.72544 27.5097ZM22.7976 29.8474C22.807 31.1658 23.8449 32.2131 25.1447 32.2037C26.435 32.1944 27.4823 31.1284 27.473 29.8193C27.4636 28.5289 26.4163 27.5003 25.1166 27.5097C23.8262 27.519 22.7883 28.5663 22.7976 29.8474Z" fill="#6FC287"/>
<path id="Vector_2" d="M24.201 6.854C25.2857 6.854 26.3704 6.854 27.4551 6.854C28.1096 6.854 28.5584 7.26543 28.5584 7.85452C28.5678 8.44362 28.1096 8.8831 27.4738 8.8831C25.267 8.8831 23.0696 8.8831 20.8628 8.8831C20.2457 8.8831 19.7969 8.45297 19.7969 7.87323C19.7969 7.27479 20.2364 6.854 20.8815 6.854C21.9849 6.854 23.0883 6.854 24.201 6.854Z" fill="#6FC287"/>
<path id="Vector_3" d="M24.1632 12.96C23.0785 12.96 21.9939 12.96 20.9092 12.96C20.2359 12.96 19.7871 12.5486 19.7871 11.9408C19.7871 11.333 20.2359 10.9309 20.9185 10.9309C23.0879 10.9309 25.2572 10.9309 27.4172 10.9309C28.0905 10.9309 28.5487 11.3517 28.5393 11.9595C28.5393 12.5579 28.0811 12.9694 27.3985 12.9694C26.3326 12.9694 25.2479 12.96 24.1632 12.96Z" fill="#6FC287"/>
</g>
</g>
</g>
</svg>
