<svg width="36" height="36" viewBox="0 0 36 36" fill="none" xmlns="http://www.w3.org/2000/svg">
<g id="steering-wheel 1" clip-path="url(#clip0_298_10371)">
<g id="Group">
<path id="Vector" d="M0 16.9527C0.0935065 16.2982 0.168312 15.6343 0.271169 14.9797C0.691948 12.4551 1.64571 10.1454 3.07636 8.03219C3.34753 7.62076 3.74026 7.51791 4.09558 7.73297C4.46026 7.96674 4.52571 8.37817 4.24519 8.8083C3.01091 10.641 2.1413 12.6234 1.73922 14.7927C0.757402 20.0197 1.96364 24.7044 5.37662 28.7719C7.58338 31.4088 10.3886 33.1948 13.7361 34.027C19.2343 35.3922 24.2182 34.2701 28.5756 30.6608C31.521 28.2202 33.3444 25.0597 34.1112 21.3101C35.8223 12.9506 30.6982 4.507 22.479 2.20674C17.6166 0.850892 13.0442 1.58024 8.78961 4.31063C8.74286 4.33868 8.6961 4.37609 8.64 4.40414C8.22857 4.66596 7.82649 4.60985 7.59273 4.26388C7.36831 3.91791 7.47117 3.51583 7.8639 3.24466C9.3413 2.24414 10.9216 1.46803 12.6327 0.953748C19.6644 -1.1595 26.9673 1.00985 31.6894 6.62959C34.1392 9.547 35.4951 12.9319 35.7756 16.7376C36.374 24.9288 31.4743 32.3626 23.7132 35.0462C22.2919 35.5325 20.8426 35.8317 19.3465 35.9439C19.2436 35.9532 19.1408 35.9813 19.0379 36C18.2899 36 17.5418 36 16.7938 36C16.719 35.9813 16.6348 35.9532 16.56 35.9439C15.7465 35.8223 14.9143 35.7475 14.1101 35.5792C7.1626 34.186 1.41195 28.2109 0.280519 21.226C0.168312 20.5527 0.0935065 19.8701 0 19.1875C0 18.4488 0 17.7008 0 16.9527Z" fill="#6FC287"/>
<path id="Vector_2" d="M32.3355 18.0467C32.3448 25.9947 25.8929 32.4747 17.9355 32.4934C9.99676 32.5121 3.50741 26.0321 3.49806 18.0841C3.48871 10.1173 9.97806 3.64667 17.9542 3.65602C25.8555 3.65602 32.3261 10.1267 32.3355 18.0467ZM17.9168 27.6685C18.7303 27.5376 19.5438 27.416 20.3573 27.2664C20.4882 27.2383 20.6378 27.0794 20.6939 26.9485C20.9464 26.3968 21.124 25.8171 21.3952 25.2747C22.6388 22.8529 24.5183 21.095 27.0056 19.9916C27.202 19.9074 27.2861 19.8046 27.3142 19.5895C27.6321 17.5417 27.3048 15.5968 26.3978 13.7454C26.2949 13.549 26.1827 13.4555 25.9583 13.4368C24.3687 13.2872 22.7791 13.0815 21.1895 12.988C17.4118 12.7635 13.6435 12.9225 9.88455 13.4368C9.66014 13.4648 9.53858 13.5397 9.43572 13.7454C8.51936 15.5968 8.20144 17.5417 8.51936 19.5895C8.54741 19.8046 8.63156 19.9074 8.82793 19.9916C11.9323 21.4035 14.0549 23.7038 15.1303 26.9485C15.1957 27.1542 15.3079 27.2571 15.5136 27.2851C16.3084 27.4067 17.0939 27.5376 17.9168 27.6685ZM6.11624 12.642C10.0529 11.8752 13.9801 11.4919 17.9355 11.4825C21.8908 11.4825 25.7994 11.8752 29.7173 12.6326C27.9968 8.74277 23.6955 5.04926 17.9168 5.04926C12.2316 5.04926 7.87416 8.65861 6.11624 12.642ZM30.6617 20.5339C25.9583 20.7116 21.3859 25.1345 21.5916 30.5204C25.2944 30.1464 30.6056 24.2929 30.6617 20.5339ZM14.2607 30.5298C14.3916 24.6482 9.37027 20.59 5.16247 20.5526C5.99468 25.4898 10.0622 29.4451 14.2607 30.5298ZM7.79001 13.7454C7.10741 13.8763 6.39676 14.0072 5.69546 14.1568C5.60195 14.1755 5.47104 14.2877 5.44299 14.3812C4.99416 15.8306 4.8352 17.3173 4.92871 18.8228C4.92871 18.9069 5.01286 19.0378 5.07832 19.0472C5.73286 19.15 6.39676 19.2342 6.98585 19.309C7.0326 18.3646 7.0139 17.4202 7.14481 16.4945C7.27572 15.5874 7.56559 14.6898 7.79001 13.7454ZM28.7635 19.3371C29.4274 19.2435 30.0633 19.1687 30.6898 19.0659C30.7739 19.0472 30.9048 18.8976 30.9142 18.8041C31.0077 17.308 30.8394 15.8306 30.3999 14.3906C30.3718 14.2971 30.269 14.1848 30.1848 14.1661C29.4648 14.0165 28.7355 13.8763 27.95 13.7267C28.6981 15.5781 28.9786 17.4295 28.7635 19.3371ZM15.7007 30.8945C17.1874 31.1563 18.6648 31.1563 20.1329 30.8945C20.1703 30.1651 20.1983 29.4732 20.2357 28.8093C19.4503 28.8747 18.6835 28.9776 17.9261 28.9776C17.15 28.9776 16.3833 28.8654 15.5978 28.8093C15.6352 29.4825 15.6633 30.1651 15.7007 30.8945Z" fill="#6FC287"/>
<path id="Vector_3" d="M5.75089 5.19893C6.13427 5.19893 6.45219 5.53555 6.44284 5.91893C6.43349 6.29296 6.11557 6.59218 5.74154 6.59218C5.35816 6.59218 5.03089 6.25555 5.04959 5.87218C5.05894 5.5075 5.38622 5.18958 5.75089 5.19893Z" fill="#6FC287"/>
<path id="Vector_4" d="M17.9062 14.5684C19.8325 14.5591 21.4127 16.1206 21.4221 18.0468C21.4314 19.9824 19.8605 21.572 17.9249 21.572C16.008 21.572 14.4278 20.0011 14.4278 18.0749C14.4184 16.158 15.98 14.5778 17.9062 14.5684ZM17.9623 15.971C16.8028 15.9523 15.8397 16.8687 15.8117 18.0094C15.7836 19.1689 16.7 20.132 17.8408 20.1694C19.0096 20.1975 19.9914 19.2718 20.0101 18.1123C20.0382 16.9528 19.1125 15.9991 17.9623 15.971Z" fill="#6FC287"/>
</g>
</g>
<defs>
<clipPath id="clip0_298_10371">
<rect width="35.9065" height="36" fill="white"/>
</clipPath>
</defs>
</svg>
