<svg width="36" height="36" viewBox="0 0 36 36" fill="none" xmlns="http://www.w3.org/2000/svg">
<g id="keys 1" clip-path="url(#clip0_298_10387)">
<g id="Group">
<g id="Group_2">
<path id="Vector" d="M0 32.774C0 22.9745 0 13.175 0 3.37557C0.102857 3.04829 0.177662 2.70232 0.327273 2.39375C1.03792 0.916344 2.22545 0.168292 3.86182 0.158941C8.77091 0.14959 13.6894 0.158941 18.5984 0.158941C23.04 0.158941 27.4909 0.158941 31.9325 0.158941C32.6431 0.158941 33.3257 0.280499 33.9429 0.645174C35.2145 1.40258 35.841 2.53401 35.841 4.00206C35.841 8.75219 35.8317 13.493 35.8317 18.2431C35.8317 22.881 35.841 27.5283 35.841 32.1662C35.841 33.8867 34.8312 35.2893 33.2509 35.8036C33.0452 35.8691 32.8301 35.9252 32.6244 35.9906C22.8249 35.9906 13.0255 35.9906 3.21662 35.9906C3.14182 35.9626 3.06701 35.9345 2.99221 35.9158C1.59896 35.5886 0.654546 34.747 0.177662 33.3911C0.112208 33.1854 0.0561039 32.9797 0 32.774ZM18.6919 17.2987C23.9283 17.2987 29.1273 17.2987 34.3356 17.2987C34.3449 17.1771 34.3543 17.0743 34.3543 16.9714C34.3543 12.6701 34.3543 8.36881 34.3543 4.06751C34.3543 2.58076 33.4099 1.65504 31.9138 1.65504C27.6312 1.65504 23.3486 1.65504 19.0753 1.65504C18.9538 1.65504 18.8229 1.65504 18.6919 1.65504C18.6919 6.88206 18.6919 12.081 18.6919 17.2987ZM17.1491 1.63634C17.0182 1.63634 16.8966 1.63634 16.7844 1.63634C12.5018 1.63634 8.21922 1.63634 3.94597 1.63634C2.41247 1.63634 1.48675 2.56206 1.48675 4.10491C1.48675 8.36881 1.48675 12.6421 1.48675 16.906C1.48675 17.0275 1.48675 17.1584 1.48675 17.2893C6.73247 17.2893 11.9408 17.2893 17.1491 17.2893C17.1491 12.0717 17.1491 6.87271 17.1491 1.63634ZM1.48675 18.8415C1.48675 18.9724 1.48675 19.094 1.48675 19.2062C1.48675 23.4888 1.48675 27.7621 1.48675 32.0447C1.48675 33.5782 2.41247 34.5039 3.95532 34.5039C8.22857 34.5039 12.4925 34.5039 16.7657 34.5039C16.8873 34.5039 17.0182 34.5039 17.1397 34.5039C17.1397 29.2582 17.1397 24.0499 17.1397 18.8509C11.9127 18.8415 6.72312 18.8415 1.48675 18.8415ZM34.3543 18.8415C29.0992 18.8415 23.9003 18.8415 18.7013 18.8415C18.7013 24.0686 18.7013 29.2675 18.7013 34.4945C18.8416 34.4945 18.9631 34.4945 19.0753 34.4945C23.3486 34.4945 27.6125 34.4945 31.8857 34.4945C33.4379 34.4945 34.3636 33.5688 34.3636 32.0073C34.3636 27.7527 34.3636 23.4982 34.3636 19.2436C34.3543 19.1221 34.3543 19.0005 34.3543 18.8415Z" fill="#6FC287"/>
<path id="Vector_2" d="M26.865 10.6037C25.9205 10.6037 24.9761 10.6037 24.0317 10.6037C23.4707 10.6037 23.1621 10.3419 23.1621 9.87435C23.1621 9.39746 23.48 9.11694 24.0504 9.11694C25.9486 9.11694 27.8561 9.11694 29.7543 9.11694C30.2218 9.11694 30.5211 9.33201 30.5959 9.69668C30.6987 10.1923 30.3715 10.5943 29.8385 10.6037C28.8473 10.6037 27.8561 10.5943 26.865 10.6037C26.865 10.5943 26.865 10.5943 26.865 10.6037Z" fill="#6FC287"/>
<path id="Vector_3" d="M8.21011 10.5942C7.45271 10.5942 6.73271 10.6036 6.01271 10.5942C5.51712 10.5849 5.2179 10.267 5.24595 9.79943C5.27401 9.39735 5.57323 9.11683 6.02206 9.11683C6.62985 9.10748 7.23764 9.11683 7.84543 9.11683C7.95764 9.11683 8.06985 9.11683 8.21946 9.11683C8.21946 8.36878 8.21011 7.65813 8.21946 6.95683C8.22881 6.34904 8.69634 6.00307 9.21998 6.18073C9.5379 6.29294 9.71556 6.55476 9.71556 6.98489C9.72491 7.68619 9.71556 8.37813 9.71556 9.12619C10.155 9.12619 10.5758 9.12619 10.9873 9.12619C11.3145 9.12619 11.6418 9.11684 11.9691 9.13554C12.3992 9.15424 12.6891 9.46281 12.6891 9.88359C12.6891 10.3044 12.4086 10.6036 11.9597 10.6129C11.3519 10.6316 10.7441 10.6223 10.1363 10.6223C10.0148 10.6223 9.88388 10.6223 9.70621 10.6223C9.70621 11.1833 9.70621 11.7163 9.70621 12.2493C9.70621 12.427 9.70621 12.5953 9.70621 12.7729C9.68751 13.2872 9.39764 13.6051 8.95816 13.6145C8.51868 13.6145 8.21011 13.2966 8.20076 12.7823C8.19141 12.2026 8.20076 11.6135 8.20076 11.0337C8.21011 10.8841 8.21011 10.7625 8.21011 10.5942Z" fill="#6FC287"/>
<path id="Vector_4" d="M8.94881 28.08C8.37842 28.6504 7.82673 29.2207 7.26569 29.7724C6.90102 30.1278 6.43348 30.0904 6.14361 29.7163C5.90985 29.4078 5.92855 29.0431 6.22777 28.7345C6.6953 28.2483 7.18153 27.7714 7.65842 27.2945C7.74257 27.2104 7.81738 27.1262 7.92024 27.014C7.34985 26.4436 6.77946 25.8919 6.22777 25.3309C5.8818 24.9756 5.9005 24.5267 6.25582 24.2275C6.56439 23.9657 6.93842 23.9844 7.26569 24.293C7.75192 24.7605 8.22881 25.2467 8.70569 25.7236C8.78985 25.8078 8.874 25.8826 8.99556 26.0041C9.5566 25.4244 10.1083 24.854 10.6693 24.3023C11.0434 23.9283 11.567 23.9937 11.8382 24.4145C12.0252 24.7137 11.9878 25.0504 11.7072 25.3402C11.2397 25.8265 10.7535 26.3033 10.2766 26.7802C10.1924 26.8644 10.1176 26.9485 10.0054 27.0701C10.5852 27.6405 11.1462 28.1922 11.7072 28.7439C11.9317 28.9683 12.0532 29.2675 11.8849 29.5387C11.754 29.7444 11.5109 29.9501 11.2865 29.9968C11.0901 30.0343 10.8096 29.9033 10.6413 29.7537C10.1457 29.3143 9.69686 28.8187 9.21998 28.3511C9.14517 28.2576 9.06102 28.1828 8.94881 28.08Z" fill="#6FC287"/>
<path id="Vector_5" d="M26.9206 24.0405C27.8276 24.0405 28.744 24.0405 29.651 24.0405C29.8006 24.0405 29.9596 24.0498 30.0998 24.0872C30.4271 24.1901 30.5954 24.4239 30.6048 24.7605C30.6141 25.0971 30.4271 25.387 30.1092 25.4805C29.9783 25.5179 29.838 25.5366 29.6978 25.5366C27.8183 25.5366 25.9388 25.5366 24.0593 25.5366C23.545 25.5366 23.2271 25.3215 23.1617 24.9288C23.0681 24.4052 23.4141 24.0405 24.0032 24.0311C24.985 24.0311 25.9481 24.0405 26.9206 24.0405Z" fill="#6FC287"/>
<path id="Vector_6" d="M26.9206 28.5195C27.8276 28.5195 28.744 28.5195 29.651 28.5195C29.8006 28.5195 29.9596 28.5288 30.0998 28.5662C30.4271 28.6691 30.5954 28.9029 30.6048 29.2395C30.6141 29.5761 30.4271 29.866 30.1092 29.9595C29.9783 29.9969 29.838 30.0156 29.6978 30.0156C27.8183 30.0156 25.9388 30.0156 24.0593 30.0156C23.545 30.0156 23.2271 29.8005 23.1617 29.4078C23.0681 28.8842 23.4141 28.5101 24.0032 28.5101C24.985 28.5101 25.9481 28.5195 26.9206 28.5195Z" fill="#6FC287"/>
</g>
</g>
</g>
<defs>
<clipPath id="clip0_298_10387">
<rect width="35.9065" height="36" fill="white"/>
</clipPath>
</defs>
</svg>
