<svg width="24" height="24" viewBox="0 0 24 24" fill="none" xmlns="http://www.w3.org/2000/svg">
<rect width="24" height="24" rx="12" fill=""/>
<path d="M17.7901 8.89013C17.7901 10.9624 17.7901 13.0376 17.7901 15.1099C17.7567 15.2156 17.7372 15.3268 17.6899 15.4242C17.4897 15.822 17.1559 16 16.7164 16C13.6343 16 10.5523 16 7.47298 16C7.44794 16 7.42013 16 7.39509 16C7.06408 15.9861 6.78313 15.8637 6.59954 15.5855C6.50497 15.4465 6.46324 15.2712 6.39927 15.1127C6.39648 13.0348 6.39648 10.9624 6.39648 8.89013C6.42986 8.78442 6.44934 8.67316 6.49941 8.5758C6.6969 8.17524 7.03348 8 7.4702 8C10.5523 8 13.6343 8 16.7164 8C16.7414 8 16.7692 8 16.7943 8C17.1141 8.01391 17.3812 8.13908 17.5815 8.39221C17.6955 8.53964 17.7484 8.7121 17.7901 8.89013ZM7.55087 8.67316C7.58146 8.70376 7.59815 8.72601 7.61762 8.74548C8.86102 9.98053 10.1044 11.2156 11.3478 12.4478C11.7957 12.8901 12.3909 12.8873 12.8388 12.4423C14.0794 11.21 15.32 9.97775 16.5606 8.74548C16.5829 8.72323 16.5995 8.70097 16.6246 8.67038C13.5982 8.67316 10.5829 8.67316 7.55087 8.67316ZM16.5634 15.3241C15.6482 14.3922 14.708 13.4353 13.7567 12.4673C13.5954 12.6314 13.4452 12.79 13.2894 12.943C12.7442 13.4715 12.0071 13.5994 11.345 13.2629C11.1698 13.1739 11.014 13.0403 10.8666 12.9096C10.7108 12.7733 10.5745 12.6175 10.416 12.4562C9.46185 13.427 8.52444 14.3839 7.59537 15.3268C10.5829 15.3241 13.5982 15.3241 16.5634 15.3241ZM9.87632 12.0028C8.95838 11.0737 8.01818 10.1196 7.06964 9.15716C7.06964 11.0542 7.06964 12.943 7.06964 14.8567C8.02653 13.886 8.96394 12.9318 9.87632 12.0028ZM17.1141 14.8623C17.1141 12.9402 17.1141 11.0515 17.1141 9.13769C16.1545 10.1113 15.2115 11.0682 14.2963 11.9972C15.2171 12.9346 16.1573 13.8887 17.1141 14.8623Z" fill="white"/>
</svg>
