<svg width="24" height="24" viewBox="0 0 24 24" fill="none" xmlns="http://www.w3.org/2000/svg">
<rect width="24" height="24" rx="12" fill=""/>
<path d="M11.9944 5C9.23345 5 7 7.35903 7 10.2752C7 11.7926 7.71829 13.1677 8.42536 14.4361C9.28956 16.0129 10.3221 17.4827 11.523 18.7867C11.7811 19.0711 12.2077 19.0711 12.477 18.7867C13.532 17.6842 14.4635 16.4395 15.2492 15.1118C16.0909 13.6773 17 12.0177 17 10.2752C16.9888 7.37089 14.7553 5 11.9944 5ZM11.9944 13.3337C10.3221 13.3337 8.96409 11.8993 8.96409 10.133C8.96409 8.36666 10.3221 6.93227 11.9944 6.93227C13.6667 6.93227 15.0247 8.35481 15.0247 10.133C15.0247 11.9111 13.6667 13.3337 11.9944 13.3337Z" fill="white"/>
</svg>
