<svg width="24" height="24" viewBox="0 0 24 24" fill="none" xmlns="http://www.w3.org/2000/svg">
<g id="ico">
<rect width="24" height="24" rx="12" fill=""/>
<path id="Vector" d="M16.7989 14.3874V15.8326C16.7995 15.9668 16.7719 16.0996 16.7181 16.2225C16.6642 16.3454 16.5852 16.4558 16.4862 16.5465C16.3871 16.6372 16.2702 16.7062 16.1428 16.7492C16.0155 16.7922 15.8806 16.8082 15.7467 16.7961C14.2614 16.635 12.8346 16.1285 11.5811 15.3172C10.4148 14.5776 9.42606 13.5907 8.68498 12.4268C7.86923 11.1701 7.36157 9.73923 7.20314 8.25021C7.19107 8.117 7.20694 7.98274 7.24972 7.85598C7.29249 7.72922 7.36125 7.61274 7.45161 7.51395C7.54196 7.41516 7.65194 7.33623 7.77454 7.28219C7.89713 7.22815 8.02966 7.20017 8.16368 7.20004H9.61174C9.84599 7.19774 10.0731 7.28053 10.2507 7.43298C10.4283 7.58542 10.5443 7.79712 10.5771 8.02862C10.6382 8.49111 10.7516 8.94522 10.915 9.38228C10.9799 9.5547 10.994 9.74209 10.9555 9.92224C10.917 10.1024 10.8276 10.2677 10.6978 10.3987L10.0848 11.0105C10.7719 12.2166 11.7725 13.2151 12.9809 13.9009L13.5939 13.2891C13.7251 13.1596 13.8908 13.0703 14.0713 13.0319C14.2518 12.9935 14.4396 13.0075 14.6124 13.0723C15.0503 13.2354 15.5053 13.3485 15.9687 13.4095C16.2032 13.4425 16.4173 13.5604 16.5704 13.7407C16.7235 13.921 16.8048 14.1512 16.7989 14.3874Z" fill="white"/>
</g>
</svg>
