<svg width="60" height="60" viewBox="0 0 60 60" fill="none" xmlns="http://www.w3.org/2000/svg">
<g id="keys 2">
<g id="Group">
<g id="Group_2">
<path id="Vector" d="M3.16406 52.028C3.16406 37.4255 3.16406 22.823 3.16406 8.22052C3.31733 7.73284 3.4288 7.2173 3.65174 6.75749C4.7107 4.55596 6.48028 3.44127 8.91867 3.42734C16.2339 3.4134 23.563 3.42734 30.8782 3.42734C37.4966 3.42734 44.1291 3.42734 50.7476 3.42734C51.8065 3.42734 52.8237 3.60847 53.7433 4.15189C55.6383 5.28051 56.5719 6.96649 56.5719 9.15408C56.5719 16.2324 56.5579 23.2968 56.5579 30.3751C56.5579 37.2862 56.5719 44.2112 56.5719 51.1223C56.5719 53.6861 55.067 55.7762 52.7122 56.5425C52.4057 56.6401 52.0852 56.7237 51.7787 56.8212C37.1762 56.8212 22.5737 56.8212 7.95725 56.8212C7.84578 56.7794 7.73431 56.7376 7.62284 56.7097C5.54672 56.222 4.13942 54.968 3.4288 52.9476C3.33127 52.6411 3.24766 52.3346 3.16406 52.028ZM31.0175 28.9678C38.8203 28.9678 46.5675 28.9678 54.3285 28.9678C54.3425 28.7866 54.3564 28.6334 54.3564 28.4801C54.3564 22.0706 54.3564 15.6611 54.3564 9.25161C54.3564 7.03616 52.9491 5.65672 50.7197 5.65672C44.3381 5.65672 37.9565 5.65672 31.5888 5.65672C31.4076 5.65672 31.2126 5.65672 31.0175 5.65672C31.0175 13.4457 31.0175 21.1928 31.0175 28.9678ZM28.7184 5.62886C28.5234 5.62886 28.3422 5.62886 28.175 5.62886C21.7934 5.62886 15.4118 5.62886 9.04408 5.62886C6.75895 5.62886 5.37952 7.00829 5.37952 9.30735C5.37952 15.6611 5.37952 22.0288 5.37952 28.3826C5.37952 28.5637 5.37952 28.7588 5.37952 28.9538C13.1963 28.9538 20.9574 28.9538 28.7184 28.9538C28.7184 21.1788 28.7184 13.4317 28.7184 5.62886ZM5.37952 31.2668C5.37952 31.4619 5.37952 31.643 5.37952 31.8102C5.37952 38.1919 5.37952 44.5596 5.37952 50.9412C5.37952 53.2263 6.75895 54.6057 9.05801 54.6057C15.4257 54.6057 21.7795 54.6057 28.1471 54.6057C28.3283 54.6057 28.5234 54.6057 28.7045 54.6057C28.7045 46.7889 28.7045 39.0279 28.7045 31.2808C20.9156 31.2668 13.1824 31.2668 5.37952 31.2668ZM54.3564 31.2668C46.5257 31.2668 38.7785 31.2668 31.0314 31.2668C31.0314 39.0558 31.0314 46.8029 31.0314 54.5918C31.2404 54.5918 31.4216 54.5918 31.5888 54.5918C37.9565 54.5918 44.3102 54.5918 50.6779 54.5918C52.9909 54.5918 54.3703 53.2124 54.3703 50.8854C54.3703 44.5456 54.3703 38.2058 54.3703 31.866C54.3564 31.6848 54.3564 31.5037 54.3564 31.2668Z" fill="#6FC287"/>
<path id="Vector_2" d="M43.1935 18.9913C41.7862 18.9913 40.3789 18.9913 38.9716 18.9913C38.1356 18.9913 37.6758 18.6012 37.6758 17.9045C37.6758 17.1939 38.1495 16.7759 38.9995 16.7759C41.828 16.7759 44.6705 16.7759 47.499 16.7759C48.1957 16.7759 48.6416 17.0964 48.7531 17.6398C48.9063 18.3783 48.4186 18.9774 47.6244 18.9913C46.1475 18.9913 44.6705 18.9774 43.1935 18.9913C43.1935 18.9774 43.1935 18.9774 43.1935 18.9913Z" fill="#6FC287"/>
<path id="Vector_3" d="M15.3962 18.9774C14.2676 18.9774 13.1947 18.9913 12.1218 18.9774C11.3833 18.9635 10.9375 18.4897 10.9793 17.793C11.0211 17.1939 11.4669 16.7759 12.1358 16.7759C13.0414 16.7619 13.9471 16.7759 14.8528 16.7759C15.02 16.7759 15.1872 16.7759 15.4102 16.7759C15.4102 15.6612 15.3962 14.6022 15.4102 13.5572C15.4241 12.6515 16.1208 12.136 16.9011 12.4007C17.3748 12.5679 17.6396 12.9581 17.6396 13.599C17.6535 14.644 17.6396 15.6751 17.6396 16.7898C18.2944 16.7898 18.9215 16.7898 19.5345 16.7898C20.0222 16.7898 20.5099 16.7759 20.9976 16.8037C21.6385 16.8316 22.0705 17.2914 22.0705 17.9184C22.0705 18.5455 21.6525 18.9913 20.9836 19.0053C20.078 19.0331 19.1723 19.0192 18.2666 19.0192C18.0854 19.0192 17.8904 19.0192 17.6256 19.0192C17.6256 19.8552 17.6256 20.6494 17.6256 21.4437C17.6256 21.7084 17.6256 21.9592 17.6256 22.2239C17.5978 22.9903 17.1658 23.464 16.5109 23.478C15.8561 23.478 15.3962 23.0042 15.3823 22.2379C15.3684 21.374 15.3823 20.4962 15.3823 19.6323C15.3962 19.4093 15.3962 19.2282 15.3962 18.9774Z" fill="#6FC287"/>
<path id="Vector_4" d="M16.5003 45.0334C15.6504 45.8833 14.8283 46.7333 13.9923 47.5554C13.4489 48.0849 12.7522 48.0291 12.3202 47.4718C11.9719 47.012 11.9998 46.4685 12.4456 46.0087C13.1423 45.2842 13.8669 44.5736 14.5775 43.8629C14.7029 43.7375 14.8144 43.6121 14.9676 43.4449C14.1177 42.595 13.2677 41.7729 12.4456 40.9369C11.9301 40.4074 11.958 39.7386 12.4874 39.2927C12.9472 38.9026 13.5046 38.9304 13.9923 39.3902C14.7168 40.0869 15.4274 40.8115 16.1381 41.5221C16.2635 41.6475 16.3889 41.759 16.57 41.9401C17.406 41.0762 18.2281 40.2263 19.0641 39.4042C19.6215 38.8468 20.4018 38.9444 20.8058 39.5714C21.0845 40.0172 21.0288 40.5189 20.6108 40.9508C19.9141 41.6754 19.1895 42.386 18.4789 43.0966C18.3535 43.222 18.242 43.3474 18.0748 43.5285C18.9387 44.3785 19.7748 45.2006 20.6108 46.0227C20.9452 46.3571 21.1263 46.803 20.8755 47.207C20.6804 47.5136 20.3182 47.8201 19.9838 47.8898C19.6912 47.9455 19.2731 47.7504 19.0223 47.5275C18.2839 46.8726 17.615 46.1341 16.9044 45.4375C16.7929 45.2981 16.6675 45.1866 16.5003 45.0334Z" fill="#6FC287"/>
<path id="Vector_5" d="M43.2802 39.0139C44.6318 39.0139 45.9973 39.0139 47.3488 39.0139C47.5718 39.0139 47.8086 39.0279 48.0176 39.0836C48.5053 39.2369 48.7561 39.5852 48.7701 40.0868C48.784 40.5884 48.5053 41.0204 48.0316 41.1597C47.8365 41.2155 47.6275 41.2433 47.4185 41.2433C44.6178 41.2433 41.8171 41.2433 39.0165 41.2433C38.2501 41.2433 37.7764 40.9228 37.6789 40.3376C37.5395 39.5573 38.0551 39.0139 38.9329 39C40.3959 39 41.8311 39.0139 43.2802 39.0139Z" fill="#6FC287"/>
<path id="Vector_6" d="M43.2802 45.688C44.6318 45.688 45.9973 45.688 47.3488 45.688C47.5718 45.688 47.8086 45.7019 48.0176 45.7577C48.5053 45.9109 48.7561 46.2593 48.7701 46.7609C48.784 47.2625 48.5053 47.6945 48.0316 47.8338C47.8365 47.8895 47.6275 47.9174 47.4185 47.9174C44.6178 47.9174 41.8171 47.9174 39.0165 47.9174C38.2501 47.9174 37.7764 47.5969 37.6789 47.0117C37.5395 46.2314 38.0551 45.6741 38.9329 45.6741C40.3959 45.6741 41.8311 45.688 43.2802 45.688Z" fill="#6FC287"/>
</g>
</g>
</g>
</svg>
