<svg width="60" height="60" viewBox="0 0 60 60" fill="none" xmlns="http://www.w3.org/2000/svg">
<g id="document(1) 1">
<g id="Group">
<g id="Group_2">
<path id="Vector" d="M13.8228 55.4286C13.1653 55.2005 12.4676 55.0529 11.8639 54.7174C9.97201 53.6575 9.01938 51.9937 9.00596 49.8201C8.99255 46.1706 9.00596 42.5211 9.00596 38.8716C9.00596 29.144 9.00596 19.4299 9.00596 9.70236C9.00596 6.96523 10.6831 4.7782 13.2727 4.16101C13.7423 4.05367 14.2387 4.01342 14.7083 4.01342C20.7327 4 26.7571 4.01342 32.7814 4C34.3781 4 35.7467 4.55011 36.9006 5.65033C40 8.58872 43.0859 11.5271 46.1988 14.4387C47.5405 15.6865 48.1711 17.2026 48.1711 19.0274C48.1577 29.2246 48.1443 39.4083 48.1711 49.6054C48.1845 52.9061 45.7962 55.0663 43.4616 55.3481C43.4214 55.3481 43.3811 55.3883 43.3275 55.4151C33.506 55.4286 23.6577 55.4286 13.8228 55.4286ZM32.4997 7.0189C32.2448 7.0189 32.0837 7.0189 31.9227 7.0189C26.2204 7.0189 20.5046 7.0189 14.8022 7.0189C13.0446 7.0189 12.0249 8.03861 12.0249 9.78286C12.0249 23.066 12.0249 36.3626 12.0249 49.6457C12.0249 51.3899 13.0446 52.4097 14.8022 52.4097C23.9931 52.4097 33.184 52.4097 42.3748 52.4097C44.1593 52.4097 45.1656 51.39 45.1656 49.6054C45.1656 39.6096 45.1656 29.6271 45.1656 19.6312C45.1656 19.4567 45.1656 19.2823 45.1656 19.0676C44.9107 19.0676 44.7363 19.0676 44.5484 19.0676C41.7979 19.0676 39.0608 19.0676 36.3102 19.0676C33.9488 19.0676 32.4997 17.6052 32.4997 15.2437C32.4997 12.6944 32.4997 10.1585 32.4997 7.60926C32.4997 7.43483 32.4997 7.24699 32.4997 7.0189ZM43.5153 16.0622C40.805 13.4995 38.202 11.0307 35.5454 8.52163C35.532 8.68264 35.5186 8.74973 35.5186 8.8034C35.5186 10.9904 35.5186 13.1774 35.5186 15.3779C35.5186 15.9012 35.6796 16.0622 36.2163 16.0622C37.5178 16.0622 38.8192 16.0622 40.1341 16.0622C41.2075 16.0622 42.2943 16.0622 43.5153 16.0622Z" fill="#6FC287"/>
<path id="Vector_2" d="M28.2449 27.1047C24.6222 27.1047 20.9861 27.1047 17.3635 27.1047C16.1827 27.1047 15.418 26.0582 15.8473 25.0384C16.1022 24.4212 16.5853 24.1126 17.2561 24.0992C17.8867 24.0858 18.5308 24.0992 19.1614 24.0992C25.8298 24.0992 32.5116 24.0992 39.18 24.0992C40.3876 24.0992 41.1658 25.1458 40.7096 26.1789C40.4278 26.8364 39.8911 27.1047 39.18 27.1047C35.5439 27.1047 31.8944 27.1047 28.2449 27.1047Z" fill="#6FC287"/>
<path id="Vector_3" d="M28.2865 35.1415C24.637 35.1415 21.0009 35.1415 17.3514 35.1415C16.1706 35.1415 15.4193 34.0815 15.8486 33.0752C16.117 32.4446 16.6268 32.136 17.3111 32.136C18.5589 32.136 19.8201 32.136 21.068 32.136C27.1057 32.136 33.1435 32.136 39.1813 32.136C40.3889 32.136 41.1671 33.196 40.6975 34.2291C40.4023 34.8731 39.8656 35.1549 39.1679 35.1415C36.0283 35.1415 32.8752 35.1415 29.7355 35.1415C29.2525 35.1415 28.7695 35.1415 28.2865 35.1415Z" fill="#6FC287"/>
<path id="Vector_4" d="M20.8678 43.1786C19.7139 43.1786 18.56 43.1786 17.4061 43.1786C16.4267 43.1786 15.7424 42.5614 15.7424 41.6893C15.729 40.7903 16.4267 40.1731 17.433 40.1731C19.7407 40.1731 22.0485 40.1731 24.3563 40.1731C25.3626 40.1731 26.0603 40.8037 26.0603 41.6893C26.0469 42.5748 25.3492 43.1786 24.3429 43.1786C23.1756 43.1786 22.0217 43.1786 20.8678 43.1786Z" fill="#6FC287"/>
</g>
</g>
</g>
</svg>
