<svg width="60" height="60" viewBox="0 0 60 60" fill="none" xmlns="http://www.w3.org/2000/svg">
<g id="hand 1" clip-path="url(#clip0_410_16743)">
<g id="Group">
<g id="Group_2">
<path id="Vector" d="M59.7179 30.9973C58.7829 32.9765 57.1621 34.4415 55.8218 36.0934C53.5621 38.883 51.2089 41.5947 48.9335 44.3687C46.8141 46.9402 44.0868 48.1713 40.7985 48.1869C35.7803 48.2181 30.7465 48.2337 25.7283 48.1713C23.9985 48.1557 22.9231 49.122 21.879 50.2285C21.8011 50.3064 21.8011 50.509 21.8322 50.6492C22.0972 52.0207 21.7387 53.1739 20.7257 54.1402C18.9647 55.8544 17.2192 57.5999 15.4582 59.3298C14.7102 60.0622 14.1335 60.0622 13.4011 59.3298C9.16211 55.0596 4.92315 50.7895 0.684188 46.5194C-0.0171103 45.8181 -0.0171101 45.2103 0.668604 44.509C2.41406 42.7479 4.1751 40.9869 5.92055 39.2259C6.71536 38.4311 7.66601 38.0415 8.80367 38.0882C8.9751 38.0882 9.25561 37.948 9.33354 37.8077C13.1985 31.0285 21.6452 29.3609 27.7387 31.6986C28.0348 31.8077 28.3777 31.8544 28.705 31.8544C32.679 31.87 36.6686 31.8856 40.6426 31.8544C42.2634 31.8389 43.666 32.2908 44.9439 33.7713C45.0374 33.5531 45.0842 33.335 45.2089 33.1947C47.3595 30.9661 49.5413 28.7376 51.692 26.509C54.2946 23.8285 58.2063 24.5921 59.6244 28.0674C59.64 28.1142 59.6868 28.1609 59.7179 28.2077C59.7179 29.1272 59.7179 30.0622 59.7179 30.9973ZM20.3673 48.3895C20.4764 48.296 20.6167 48.1869 20.7257 48.0622C22.1907 46.4415 23.9985 45.8181 26.1803 45.8493C30.9959 45.9272 35.8115 45.8804 40.6115 45.8648C42.9179 45.8648 45.053 45.2259 46.5803 43.4648C50.1024 39.3817 53.5309 35.2207 56.9751 31.0752C57.8167 30.0622 57.692 28.6596 56.7413 27.8337C55.8063 26.9921 54.4037 27.0544 53.4842 28.0051C51.0063 30.5454 48.5283 33.0856 46.066 35.6415C45.9413 35.7817 45.8167 35.9999 45.8167 36.1869C45.7855 39.2726 43.8686 41.2051 40.7985 41.2207C37.8686 41.2207 34.9387 41.2207 32.0089 41.2207C31.7595 41.2207 31.4946 41.2051 31.2608 41.1428C30.7621 41.0025 30.4348 40.5038 30.466 39.9895C30.4972 39.4596 30.8712 39.0233 31.3855 38.9298C31.6348 38.883 31.8842 38.883 32.1335 38.883C35.0011 38.883 37.8842 38.883 40.7517 38.883C41.0478 38.883 41.3439 38.8674 41.6244 38.8207C42.8244 38.6025 43.6504 37.3869 43.4322 36.1713C43.1985 34.909 42.279 34.2077 40.8141 34.2077C36.6686 34.2077 32.5076 34.2077 28.3621 34.1921C27.9413 34.1921 27.505 34.1298 27.1154 33.9739C23.4998 32.5869 19.9309 32.7272 16.4244 34.3012C14.1024 35.3454 12.3725 37.0596 11.2037 39.257C14.305 42.296 17.3283 45.335 20.3673 48.3895ZM14.7102 57.0856C16.1128 55.6051 17.5777 54.0622 19.0582 52.5194C19.7751 51.7713 19.7907 51.1947 19.0582 50.4622C15.8946 47.2986 12.7154 44.1194 9.55172 40.9557C8.81925 40.2233 8.25821 40.2389 7.51016 40.9713C6.10756 42.3739 4.72055 43.7765 3.31795 45.1791C3.20886 45.2882 3.11536 45.3973 2.9751 45.5687C6.82445 49.3557 10.6582 53.1272 14.7102 57.0856Z" fill="#6FC287"/>
<path id="Vector_2" d="M36.0934 0.140137C36.8103 0.280396 37.5427 0.405073 38.244 0.592086C44.1817 2.19728 48.0155 7.55832 47.7349 13.8077C47.47 19.5583 42.9661 24.5765 37.1375 25.6207C29.9843 26.883 23.1427 21.8492 22.2233 14.6181C21.3194 7.52715 26.2908 1.13754 33.3817 0.24923C33.5064 0.233645 33.6466 0.18689 33.7713 0.140137C34.5349 0.140137 35.3142 0.140137 36.0934 0.140137ZM34.8934 23.4544C40.6752 23.47 45.3973 18.8103 45.4129 13.0285C45.444 7.23105 40.7687 2.49338 35.0181 2.4778C29.1895 2.44663 24.4518 7.12195 24.4362 12.9038C24.4051 18.7323 29.0804 23.4388 34.8934 23.4544Z" fill="#6FC287"/>
</g>
</g>
</g>
<defs>
<clipPath id="clip0_410_16743">
<rect width="59.8442" height="60" fill="white"/>
</clipPath>
</defs>
</svg>
