<svg width="58" height="60" viewBox="0 0 58 60" fill="none" xmlns="http://www.w3.org/2000/svg">
<g id="money 1">
<g id="Group">
<g id="Group_2">
<path id="Vector" d="M47.1913 11.9492C47.8482 12.3871 48.5051 12.6061 49.162 13.044C49.8189 13.7009 50.2568 14.3578 50.2568 15.4526C50.2568 16.3285 50.2568 16.9854 50.2568 17.8613C50.4758 17.8613 50.9138 17.8613 51.1328 18.0803C52.4466 18.5182 53.3225 19.613 53.3225 21.1458C53.3225 25.0872 53.3225 29.0287 53.3225 33.1891C53.3225 38.8823 53.3225 44.5755 53.3225 50.2687C53.3225 52.8963 51.5707 55.086 49.162 55.7429C48.7241 55.9618 48.2862 55.9618 47.6293 55.9618C34.4911 55.9618 21.353 55.9618 8.21491 55.9618C5.80626 55.9618 4.27344 54.429 4.27344 52.0204C4.27344 39.3202 4.27344 26.4011 4.27344 13.7009C4.27344 9.97841 7.33901 6.91284 11.0615 6.91284C21.353 6.91284 31.4256 6.91284 41.7171 6.91284C44.7826 6.4749 46.9723 8.66463 47.1913 11.9492ZM50.9138 43.6996C50.6948 43.6996 50.4758 43.6996 50.2568 43.6996C45.6585 43.6996 41.0602 43.6996 36.4618 43.6996C32.0825 43.6996 29.2359 39.5392 30.9876 35.5977C31.8635 33.4081 34.0532 31.8752 36.6808 31.8752C41.2792 31.8752 45.8775 31.8752 50.4758 31.8752C50.6948 31.8752 50.9138 31.8752 51.1328 31.8752C51.1328 31.6563 51.1328 31.6563 51.1328 31.4374C51.1328 27.9339 51.1328 24.4303 51.1328 21.1458V20.9268C51.1328 20.2699 50.9137 20.051 50.2568 20.051C49.8189 20.051 49.5999 20.051 49.162 20.051C36.4618 20.051 23.7617 20.051 11.0615 20.051C9.5287 20.051 8.21491 19.613 7.12007 18.7371C6.9011 18.7371 6.90107 18.5182 6.68211 18.2992C6.68211 18.5182 6.68211 18.7371 6.68211 18.7371C6.68211 29.6856 6.68211 40.4151 6.68211 51.3635C6.68211 52.6773 7.12008 53.1152 8.43389 53.1152C21.572 53.1152 34.7101 53.1152 47.6293 53.1152C49.8189 53.1152 51.1328 51.8014 51.1328 49.6117C51.1328 47.86 51.1328 45.8893 51.1328 44.1375C50.9138 44.1375 50.9138 44.1375 50.9138 43.6996ZM10.4046 17.6423C10.4046 16.9854 10.4046 16.3285 10.4046 15.4526C10.1856 13.4819 11.9374 11.9492 13.9081 11.9492C23.9807 11.9492 34.2722 11.9492 44.3447 11.9492C44.5637 11.9492 44.7826 11.9492 45.0016 11.9492C45.0016 11.5112 45.0016 11.2922 44.7826 11.0732C44.3447 9.54045 43.2499 8.66463 41.4981 8.66463C31.4255 8.66463 21.353 8.66463 11.2805 8.66463C11.0615 8.66463 10.8425 8.66463 10.6236 8.66463C8.87183 8.8836 7.55799 9.75943 6.90109 11.2922C6.24418 12.825 6.46312 14.5768 7.55797 15.8906C8.21487 16.9854 9.09079 17.4233 10.4046 17.6423ZM50.9138 34.2839C49.6 34.2839 48.0672 34.2839 46.7534 34.2839C43.2499 34.2839 39.7464 34.2839 36.2429 34.2839C34.0532 34.2839 32.5204 36.2547 32.7394 38.2254C32.9583 40.1961 34.4911 41.2909 36.4618 41.2909C41.0602 41.2909 45.8775 41.2909 50.4758 41.2909C50.6948 41.2909 50.6948 41.2909 50.9138 41.2909C50.9138 39.1013 50.9138 36.6926 50.9138 34.2839ZM47.8482 17.6423C47.8482 16.7664 47.8482 16.1096 47.8482 15.2337C47.8482 14.7957 47.4103 14.3578 46.9723 14.3578C46.5344 14.3578 46.0965 14.3578 45.4396 14.3578C34.9291 14.3578 24.4186 14.3578 13.9081 14.3578C13.6891 14.3578 13.4701 14.3578 13.2512 14.3578C12.8132 14.3578 12.5943 14.5768 12.5943 15.0147C12.5943 15.8906 12.5943 16.7664 12.5943 17.6423C24.4186 17.6423 36.2429 17.6423 47.8482 17.6423Z" fill="#6FC287"/>
</g>
</g>
</g>
</svg>
