<svg width="24" height="24" viewBox="0 0 24 24" fill="none" xmlns="http://www.w3.org/2000/svg">
<rect width="24" height="24" rx="12" fill=""/>
<g clip-path="url(#clip0_239_3028)">
<path d="M18.4007 11.6229C18.4007 11.8733 18.4007 12.1237 18.4007 12.3742C18.3944 12.418 18.385 12.4618 18.3788 12.5056C18.3381 12.7811 18.3162 13.0597 18.2567 13.3321C17.9216 14.8691 17.1326 16.1275 15.8801 17.076C14.324 18.2561 12.5674 18.6474 10.6574 18.2467C9.12633 17.9274 7.88328 17.126 6.93142 15.8896C5.90128 14.5529 5.47232 13.0315 5.63514 11.3568C5.76664 10.0014 6.29267 8.80245 7.19756 7.77882C8.18699 6.66129 9.42065 5.96322 10.8954 5.70027C11.1365 5.65644 11.3807 5.63453 11.6218 5.6001C11.8723 5.6001 12.1228 5.6001 12.3733 5.6001C12.4046 5.60636 12.4359 5.61888 12.4704 5.62201C13.4723 5.69401 14.4085 5.97887 15.2633 6.50164C16.9197 7.519 17.9404 8.98088 18.3005 10.8966C18.3443 11.1377 18.3663 11.3819 18.4007 11.6229ZM12.0038 6.59242C9.02613 6.58616 6.60265 9.00279 6.59326 11.9891C6.58386 14.963 9.00108 17.3859 11.9882 17.4015C14.9659 17.414 17.4019 14.9818 17.405 11.9985C17.405 9.01844 14.9878 6.59868 12.0038 6.59242Z" fill="white"/>
<path d="M11.5032 10.5365C11.5032 10.0575 11.5001 9.5786 11.5032 9.09965C11.5064 8.72088 11.8351 8.47671 12.1701 8.60193C12.3799 8.67706 12.4958 8.86175 12.4958 9.1247C12.4958 9.9605 12.4989 10.7994 12.4927 11.6352C12.4927 11.7448 12.5208 11.8137 12.6148 11.8825C13.1658 12.2863 13.7107 12.6996 14.2555 13.1096C14.5028 13.2975 14.5498 13.598 14.3745 13.8234C14.2022 14.0456 13.9079 14.08 13.6637 13.9016C13.2065 13.5635 12.7494 13.2192 12.2923 12.8749C12.1138 12.7403 11.9353 12.6025 11.7506 12.471C11.5752 12.3458 11.497 12.183 11.5001 11.9702C11.5032 11.4944 11.5032 11.0154 11.5032 10.5365Z" fill="white"/>
</g>
<defs>
<clipPath id="clip0_239_3028">
<rect width="12.8" height="12.8" fill="white" transform="translate(5.59961 5.6001)"/>
</clipPath>
</defs>
</svg>
