<svg width="24" height="24" viewBox="0 0 24 24" fill="none" xmlns="http://www.w3.org/2000/svg">
<rect width="24" height="24" rx="12" fill=""/>
<path fill-rule="evenodd" clip-rule="evenodd" d="M6.43977 15.7341C6.19014 15.6645 5.96238 15.5406 5.7757 15.3729C5.58902 15.2053 5.44889 14.9987 5.36715 14.7707C4.90004 13.5924 4.76164 8.67216 5.66125 7.70084C5.96066 7.38487 6.38339 7.19033 6.83767 7.15946C9.25106 6.92061 16.7075 6.95245 17.5638 7.23907C17.8047 7.31099 18.0248 7.43215 18.2075 7.59347C18.3903 7.75479 18.531 7.95209 18.6192 8.17058C19.1295 9.3887 19.1468 13.8153 18.55 14.9857C18.3916 15.2903 18.1266 15.5371 17.7974 15.6863C16.8978 16.1003 7.63349 16.0924 6.43977 15.7341ZM10.2718 13.4252L14.5969 11.3552L10.2718 9.26928V13.4252Z" fill="white"/>
</svg>
