<svg width="17" height="16" viewBox="0 0 17 16" fill="none" xmlns="http://www.w3.org/2000/svg">
<g id="charging 1">
<g id="Group">
<g id="Group_2">
<path id="Vector" d="M6.21646 15.9969C5.94512 15.9127 5.65818 15.8628 5.40866 15.738C4.52913 15.2951 4.0613 14.5653 4.00516 13.5797C3.9958 13.4144 4.00204 13.246 4.00204 13.0807C4.00204 9.99923 4.00204 6.91774 4.00204 3.83626C4.00204 2.70722 4.64765 1.77155 5.6956 1.41599C5.95135 1.32866 6.23517 1.3193 6.5034 1.27564C6.55642 1.26628 6.61568 1.27564 6.6843 1.27564C6.6843 1.21326 6.6843 1.1696 6.6843 1.12281C6.69677 0.586361 6.99931 0.202735 7.51705 0.0561466C7.542 0.0499088 7.56383 0.0374329 7.58878 0.0280762C8.44024 0.0280762 9.29482 0.0280762 10.1463 0.0280762C10.4956 0.124762 10.7981 0.296303 10.9385 0.642501C11.0165 0.832755 11.0383 1.04796 11.0851 1.24757C11.3408 1.285 11.6246 1.30371 11.8929 1.37233C12.9065 1.62184 13.6738 2.57622 13.7268 3.62106C13.7299 3.69279 13.733 3.76765 13.733 3.83938C13.733 5.98207 13.733 8.12164 13.7361 10.2643C13.7361 10.4702 13.6956 10.6604 13.5397 10.8039C13.3525 10.9786 13.128 11.0285 12.8878 10.9349C12.6477 10.8444 12.5167 10.6604 12.4886 10.4047C12.4823 10.3423 12.4855 10.2799 12.4855 10.2175C12.4855 8.09669 12.4855 5.97583 12.4855 3.85498C12.4855 3.20936 12.1455 2.73841 11.556 2.57311C11.4313 2.5388 11.3003 2.52944 11.1724 2.52632C10.9229 2.52008 10.6734 2.52944 10.4239 2.5232C10.0714 2.51385 9.8188 2.2581 9.80633 1.90878C9.80009 1.70605 9.80633 1.50332 9.80633 1.29123C9.18254 1.29123 8.56812 1.29123 7.93498 1.29123C7.93498 1.47525 7.93498 1.66238 7.93498 1.8464C7.93186 2.27057 7.67923 2.5232 7.25506 2.52632C7.0149 2.52944 6.77787 2.5232 6.53771 2.52632C5.79229 2.53568 5.26208 3.06277 5.25272 3.80819C5.24648 4.26044 5.25272 4.71268 5.25272 5.16492C5.25272 7.9158 5.25272 10.6636 5.25272 13.4144C5.25272 13.954 5.46169 14.3813 5.95759 14.6152C6.14785 14.7057 6.37553 14.7462 6.58761 14.7462C8.10652 14.7556 9.62231 14.7524 11.1412 14.7524C11.9272 14.7524 12.4293 14.2846 12.4886 13.5018C12.5104 13.2211 12.6414 13.0152 12.9065 12.9185C13.3213 12.7688 13.7361 13.0807 13.7361 13.5329C13.7361 14.5279 13.0812 15.476 12.1486 15.8253C11.9459 15.9002 11.7338 15.9439 11.5248 16C9.75019 15.9969 7.98176 15.9969 6.21646 15.9969Z" fill="#464646"/>
<path id="Vector_2" d="M10.3799 5.92285C9.99314 6.54351 9.62822 7.13923 9.24772 7.75053C9.30074 7.75677 9.34128 7.76301 9.37871 7.76301C9.79041 7.76301 10.199 7.76613 10.6107 7.76301C10.8259 7.75989 11.0037 7.8285 11.0972 8.03123C11.1908 8.23708 11.1253 8.41174 10.9818 8.57392C10.0337 9.65618 9.08553 10.7416 8.13739 11.8238C8.09684 11.8706 8.04694 11.9268 7.99392 11.9361C7.90971 11.9517 7.80366 11.9548 7.73505 11.9112C7.69762 11.8893 7.6945 11.7583 7.71633 11.6928C7.96273 10.988 8.2216 10.2862 8.47423 9.58445C8.49294 9.53767 8.50542 9.48776 8.52725 9.42539C8.46487 9.42227 8.41809 9.41603 8.36818 9.41603C8.00951 9.41603 7.65084 9.42227 7.29216 9.41291C6.79625 9.40043 6.49684 8.93572 6.72764 8.50219C7.17988 7.65385 7.66019 6.82422 8.13427 5.98835C8.15298 5.95716 8.206 5.92597 8.24343 5.92597C8.94206 5.92285 9.64382 5.92285 10.3799 5.92285Z" fill="#464646"/>
</g>
</g>
</g>
</svg>
