<svg width="16" height="16" viewBox="0 0 16 16" fill="none" xmlns="http://www.w3.org/2000/svg">
<g id="fire 1">
<g id="Group">
<g id="Group_2">
<path id="Vector" d="M6.27866 0.106579C6.34977 0.153987 6.43273 0.213247 6.50384 0.248803C7.59421 0.876951 8.50681 1.71843 9.20607 2.76139C9.90532 3.80436 10.2846 4.95399 10.3438 6.21028C10.3794 6.87399 10.3913 7.52584 10.3913 8.18954C10.3794 9.10214 10.2846 10.0029 9.91718 10.8444C11.1972 9.26806 11.7898 7.46658 11.7542 5.42806C11.849 5.58213 11.9438 5.72436 12.0268 5.87843C12.572 6.86214 12.9868 7.89325 13.1527 9.01917C13.295 9.99102 13.212 10.9273 12.9038 11.8518C12.3587 13.4162 11.4342 14.7318 10.2135 15.8221C10.1779 15.8458 10.1542 15.8695 10.095 15.9169C10.3675 14.7555 10.6757 13.6177 10.735 12.4207C10.1187 12.8355 9.53792 13.2621 8.85051 13.5229C7.78384 11.8399 7.22681 10.0384 7.35718 7.98806C7.15569 8.14213 6.97792 8.27251 6.82384 8.41473C5.86384 9.29176 5.29495 10.3821 5.04607 11.6503C4.78532 13.0369 4.9631 14.3881 5.34236 15.7273C5.35421 15.7747 5.36606 15.834 5.37792 15.8932C5.36606 15.9051 5.35421 15.9169 5.34236 15.9288C5.05792 15.6681 4.77347 15.4192 4.50088 15.1347C3.70681 14.2932 3.11421 13.3451 2.81792 12.2192C2.47421 10.9155 2.59273 9.62362 3.14977 8.41473C3.80162 7.00436 4.53643 5.61769 5.24754 4.23103C5.56754 3.59103 5.91125 2.96288 6.11273 2.27547C6.30236 1.64732 6.32606 1.00732 6.2668 0.355469C6.25495 0.272506 6.25495 0.17769 6.25495 0.0947266C6.2668 0.106578 6.2668 0.106579 6.27866 0.106579Z" fill="#464646"/>
</g>
</g>
</g>
</svg>
