<svg width="320" height="5581" viewBox="0 0 320 5581" fill="none" xmlns="http://www.w3.org/2000/svg">
<g clip-path="url(#clip0_602_29728)">
<g filter="url(#filter0_f_602_29728)">
<path d="M336.33 351.995C357.147 691.748 180.202 416.06 -18.0802 648.762C-216.363 881.464 -360 649.992 -360 477.646C-360 305.3 -341.265 175.506 -73.7661 233.785C193.733 292.063 325.993 -93.9105 336.33 351.995Z" fill="url(#paint0_linear_602_29728)"/>
</g>
<g filter="url(#filter1_f_602_29728)">
<path d="M985.148 546.178C1008.23 923.619 812.021 617.349 592.149 875.865C372.277 1134.38 213 877.231 213 685.767C213 494.302 233.775 350.11 530.4 414.854C827.025 479.597 973.685 50.8074 985.148 546.178Z" fill="url(#paint1_linear_602_29728)"/>
</g>
</g>
<defs>
<filter id="filter0_f_602_29728" x="-774" y="-280" width="1526" height="1441" filterUnits="userSpaceOnUse" color-interpolation-filters="sRGB">
<feFlood flood-opacity="0" result="BackgroundImageFix"/>
<feBlend mode="normal" in="SourceGraphic" in2="BackgroundImageFix" result="shape"/>
<feGaussianBlur stdDeviation="207" result="effect1_foregroundBlur_602_29728"/>
</filter>
<filter id="filter1_f_602_29728" x="-201" y="-110" width="1602" height="1509" filterUnits="userSpaceOnUse" color-interpolation-filters="sRGB">
<feFlood flood-opacity="0" result="BackgroundImageFix"/>
<feBlend mode="normal" in="SourceGraphic" in2="BackgroundImageFix" result="shape"/>
<feGaussianBlur stdDeviation="207" result="effect1_foregroundBlur_602_29728"/>
</filter>
<linearGradient id="paint0_linear_602_29728" x1="-11" y1="130.158" x2="-11" y2="747" gradientUnits="userSpaceOnUse">
<stop stop-color="#9EE9B4"/>
<stop offset="1" stop-color="#DEEEE1"/>
</linearGradient>
<linearGradient id="paint1_linear_602_29728" x1="600" y1="299.731" x2="600" y2="985" gradientUnits="userSpaceOnUse">
<stop stop-color="#F2CBBA"/>
<stop offset="1" stop-color="#DEEEE1"/>
</linearGradient>
<clipPath id="clip0_602_29728">
<rect width="320" height="5581" fill="white"/>
</clipPath>
</defs>
</svg>
