<svg width="167" height="15" viewBox="0 0 167 15" fill="none" xmlns="http://www.w3.org/2000/svg">
<g clip-path="url(#clip0_2003_15139)">
<path d="M142.672 0L146.717 7.62504L150.275 0H152.75L145.586 15H143.11L145.367 10.3137L139.798 0H142.672Z" fill="#1E4F4F"/>
<path d="M25.643 6.92252C26.816 6.0431 27.0153 5.01858 27.0153 4.18032C27.0153 2.46729 26.1965 1.416 25.2667 0.793875C24.0309 -0.0428319 22.6803 -0.000121784 21.4445 -0.000121784H19.0986V14.9999H22.6581C23.765 14.9999 25.4437 15.0215 26.7938 13.9486C28.0512 12.9441 28.3399 11.4235 28.3399 10.541C28.3399 9.15014 27.5871 7.50194 25.643 6.92252ZM21.489 2.14568H22.2823C22.8135 2.14568 24.7132 2.18839 24.7132 4.24465C24.7132 6.45065 22.7247 6.45065 22.1935 6.45065H21.4895L21.489 2.14568ZM22.9018 12.8582H21.489V8.33607H22.9462C25.3771 8.33607 25.9528 9.55871 25.9528 10.5889C25.9528 11.5496 25.4438 12.8582 22.9018 12.8582Z" fill="#1E4F4F"/>
<path d="M31.8342 0V2.10309H35.372V15H37.7591V2.10309H41.2969V0H31.8342Z" fill="#1E4F4F"/>
<path d="M52.3922 0C47.8623 0 44.501 3.27633 44.501 7.52213C44.501 11.7237 47.8406 15 52.3922 15C56.9437 15 60.2866 11.7237 60.2866 7.52213C60.2866 3.27633 56.9259 0 52.3922 0ZM52.3922 12.9407C49.1868 12.9407 46.9287 10.6925 46.9287 7.52213C46.9287 4.32864 49.1868 2.06295 52.3922 2.06295C55.5975 2.06295 57.8616 4.3271 57.8616 7.52213C57.8589 10.6925 55.6013 12.9407 52.3922 12.9407Z" fill="#1E4F4F"/>
<path d="M65.3682 0V15H67.8051V2.14528H74.5201V15H76.9543V0H65.3682Z" fill="#1E4F4F"/>
<path d="M90.3353 1.61269C90.2717 1.53682 90.2039 1.46417 90.1323 1.39503C89.9087 1.16869 89.6575 0.96863 89.3839 0.799142C89.1728 0.666329 88.9506 0.550325 88.7194 0.452316C88.5784 0.389686 88.4337 0.33471 88.2862 0.28765C87.4836 0.0313894 86.6995 0 86.0009 0H82.5958V2.10309H86.0009C86.0783 2.10309 86.1666 2.10309 86.2625 2.10669L86.4655 2.1175C86.5739 2.12419 86.687 2.13499 86.8013 2.15249C86.9156 2.16998 87.0374 2.19108 87.1592 2.21887H87.163C87.286 2.24556 87.4067 2.28081 87.5242 2.32436C87.818 2.42152 88.0861 2.57813 88.31 2.78336C88.3446 2.81236 88.3767 2.84403 88.4059 2.87804V2.88165C88.471 2.94715 88.529 3.01869 88.5791 3.0952C88.786 3.40395 88.9187 3.81561 88.9187 4.35026C88.9187 6.40858 87.0634 6.63962 86.0226 6.63962H82.5958V15H84.9823V8.73911H86.0226C86.648 8.74749 87.2718 8.67829 87.8784 8.53328C88.2148 8.44755 88.5413 8.33016 88.8532 8.18285C89.1939 8.02077 89.5124 7.81943 89.8014 7.58336C89.9519 7.46031 90.0937 7.32794 90.2259 7.18714C90.3202 7.0865 90.4087 6.98121 90.4913 6.8717C90.9559 6.25111 91.3036 5.42419 91.3036 4.37238C91.3057 3.5506 91.0951 2.49571 90.3353 1.61269Z" fill="#1E4F4F"/>
<path d="M95.8172 0V2.10309H104.35V0H95.8172Z" fill="#1E4F4F"/>
<path d="M117.395 2.05832C118.236 2.05832 119.936 2.18233 121.571 3.66432V1.0693C120.623 0.470841 119.427 0 117.439 0C115.318 0 113.459 0.470841 111.846 1.91527C109.991 3.56192 109.371 5.68353 109.371 7.56072C109.371 9.90926 110.342 11.6588 111.846 12.9998C113.835 14.7494 116.001 14.9974 117.328 14.9974C119.649 14.9974 121.088 14.1931 121.571 13.9045V11.2693C119.826 12.8166 118.125 12.9401 117.395 12.9401C114.122 12.9401 111.846 10.6297 111.846 7.56278C111.846 4.38731 114.034 2.05832 117.395 2.05832Z" fill="#1E4F4F"/>
<path d="M162.823 2.05832C163.66 2.05832 165.365 2.18233 166.999 3.66432V1.0693C166.051 0.470841 164.856 0 162.867 0C160.746 0 158.886 0.470841 157.274 1.91527C155.415 3.56192 154.799 5.68353 154.799 7.56072C154.799 9.90926 155.769 11.6593 157.274 12.9998C159.263 14.7494 161.428 14.9974 162.756 14.9974C165.077 14.9974 166.512 14.1931 166.999 13.9045V11.2693C165.254 12.8166 163.549 12.9401 162.823 12.9401C159.55 12.9401 157.274 10.6333 157.274 7.56278C157.274 4.38731 159.462 2.05832 162.823 2.05832Z" fill="#1E4F4F"/>
<path d="M126.596 0V2.10309H130.13V14.9774H132.521V2.10309H136.055V0H126.596Z" fill="#1E4F4F"/>
<path d="M98.2042 6.60198V12.8979H104.35V14.9973H95.8172V4.49838H104.35V6.60198H98.2042Z" fill="#1E4F4F"/>
<path d="M15.0296 15H7.12763V13.2175H11.6207L10.8312 11.5528L7.60309 4.74288L3.38673 13.3358L3.05478 14.0089L2.56415 15H0L7.6919 0L15.0296 15Z" fill="#1E4F4F"/>
</g>
<defs>
<clipPath id="clip0_2003_15139">
<rect width="167" height="15" fill="white"/>
</clipPath>
</defs>
</svg>
