<svg width="200" height="80" viewBox="-67 -7 200 80" fill="none" xmlns="http://www.w3.org/2000/svg">
<g clip-path="url(#clip0_413_24278)">
<path d="M33.0446 62.7707C16.6934 62.7707 3.2973 49.3089 3.2973 32.9577C3.2973 29.2803 3.95397 25.8 5.20165 22.5166L22.6035 57.5173C22.8005 57.977 23.1288 58.371 23.6542 58.371C24.1795 58.371 24.5079 57.977 24.7049 57.5173L32.7163 39.5901C32.7819 39.3931 32.9133 39.1961 33.1103 39.1961C33.3073 39.1961 33.3729 39.3931 33.5043 39.5901L41.5157 57.5173C41.7127 57.977 42.041 58.371 42.5664 58.371C43.0917 58.371 43.42 57.977 43.6171 57.5173L61.0189 22.5166C62.2666 25.8 62.9232 29.2803 62.9232 32.9577C62.7919 49.3089 49.3958 62.7707 33.0446 62.7707ZM33.0446 26.194C32.8476 26.194 32.7819 25.997 32.6506 25.8L23.3258 4.7864C26.3465 3.67006 29.6299 3.07905 33.0446 3.07905C36.4593 3.07905 39.7427 3.67006 42.7634 4.7864L33.4386 25.8C33.3073 26.0626 33.2416 26.194 33.0446 26.194ZM23.5228 47.7985C23.3258 47.7985 23.2602 47.6015 23.1288 47.4045L8.02535 16.9349C10.7177 12.7978 14.3294 9.31745 18.7291 6.88776L29.6299 31.119C29.7612 31.513 30.0896 31.6443 30.4179 31.6443H35.6713C36.0653 31.6443 36.328 31.5787 36.525 31.119L47.4258 6.88776C51.7598 9.31745 55.4372 12.7978 58.1295 16.9349L42.8947 47.4045C42.829 47.6015 42.6977 47.7985 42.5007 47.7985C42.3037 47.7985 42.238 47.6015 42.1067 47.4045L36.3936 34.4024C36.1966 33.9427 35.934 33.877 35.54 33.877H30.2866C29.8926 33.877 29.6299 33.9427 29.4329 34.4024L23.9168 47.4045C23.8512 47.6015 23.7198 47.7985 23.5228 47.7985ZM33.0446 65.7914C51.2345 65.7914 65.8783 51.1475 65.8783 32.9577C65.8783 14.7678 51.2345 0.124023 33.0446 0.124023C14.8548 0.124023 0.210938 14.7678 0.210938 32.9577C0.210938 51.1475 14.8548 65.7914 33.0446 65.7914Z" fill="#001E50"/>
</g>
<defs>
<clipPath id="clip0_413_24278">
<rect width="66" height="66" fill="white"/>
</clipPath>
</defs>
</svg>
