<svg width="200" height="80" viewBox="-45 -9 200 80" fill="none" xmlns="http://www.w3.org/2000/svg">
<g clip-path="url(#clip0_413_24273)">
<path d="M52.5553 0H57.5293C67.7975 0.354613 77.9811 2.13683 87.522 6.02841C97.4815 10.0916 109.136 18.0738 110 29.927V32.1576C109.085 43.1918 99.1052 50.8011 89.8592 55.0038C79.79 59.5795 68.7511 61.7072 57.7306 62H52.1277C37.0478 61.5653 19.7886 57.5959 8.23971 47.2962C3.69563 43.2444 0.461954 38.0602 0 31.9014V30.1283C0.756965 21.684 6.46507 15.23 13.296 10.8328C24.8541 3.39284 39.0054 0.464428 52.5553 0ZM108.76 31.0275C108.76 23.1425 103.099 15.5805 93.0224 10.005C82.9455 4.42948 69.2783 1.2972 55.0274 1.2972C40.7765 1.2972 27.1093 4.42948 17.0324 10.005C6.95553 15.5805 1.29439 23.1425 1.29439 31.0275C1.29439 38.9124 6.95553 46.4744 17.0324 52.0499C27.1093 57.6254 40.7765 60.7577 55.0274 60.7577C69.2783 60.7577 82.9455 57.6254 93.0224 52.0499C103.099 46.4744 108.76 38.9124 108.76 31.0275Z" fill="#191919"/>
<path d="M106.499 31.0277C106.499 34.6643 105.167 38.2652 102.58 41.6249C99.9934 44.9847 96.2017 48.0374 91.4217 50.6088C86.6417 53.1802 80.9671 55.22 74.7217 56.6116C68.4764 58.0033 61.7827 58.7196 55.0228 58.7196C41.3705 58.7196 28.2774 55.802 18.6238 50.6088C8.97021 45.4156 3.54688 38.3721 3.54688 31.0277C3.54688 23.6834 8.97021 16.6399 18.6238 11.4467C28.2774 6.25346 41.3705 3.33594 55.0228 3.33594C68.675 3.33594 81.7681 6.25346 91.4217 11.4467C101.075 16.6399 106.499 23.6834 106.499 31.0277ZM50.872 17.843C50.8873 26.7671 50.8873 35.6903 50.872 44.6128C50.8697 46.6833 49.1065 47.1432 47.4165 47.1111C47.2854 47.1081 47.2198 47.1721 47.2198 47.3033V50.6756C47.2198 50.7059 47.2319 50.735 47.2533 50.7565C47.2748 50.7779 47.3039 50.79 47.3342 50.79H61.9132C61.9894 50.79 62.0275 50.7518 62.0275 50.6756V47.2393C62.0275 47.1447 61.981 47.1012 61.888 47.1089C59.3496 47.3354 58.1581 46.0953 58.213 43.6337C58.4463 33.3857 58.6566 23.0455 58.8442 12.6131C58.8457 12.4773 58.7786 12.4094 58.6429 12.4094L54.2178 12.4163C54.1278 12.4163 54.0463 12.4422 53.9731 12.4941L48.9762 15.9396C48.9106 15.9853 48.8779 16.0486 48.8779 16.1294V17.6165C48.8779 17.6928 48.916 17.7309 48.9922 17.7309H50.76C50.8347 17.7309 50.872 17.7683 50.872 17.843ZM94.0602 26.8525C94.0801 26.8522 94.0995 26.8465 94.1164 26.836C94.1334 26.8256 94.1471 26.8107 94.1562 26.793L96.7267 21.8376C96.7354 21.8208 96.7395 21.802 96.7388 21.7831C96.7381 21.7642 96.7326 21.7459 96.7227 21.7297C96.7128 21.7136 96.6989 21.7004 96.6824 21.6912C96.6659 21.682 96.6473 21.6773 96.6284 21.6774H67.5687C67.5396 21.6774 67.5117 21.6658 67.4911 21.6453C67.4705 21.6247 67.4589 21.5967 67.4589 21.5676V19.957C67.4589 19.9278 67.4474 19.8999 67.4268 19.8793C67.4062 19.8587 67.3783 19.8472 67.3492 19.8472H62.9949C62.9658 19.8472 62.9379 19.8587 62.9173 19.8793C62.8967 19.8999 62.8851 19.9278 62.8851 19.957V26.7129C62.8851 26.742 62.8967 26.77 62.9173 26.7906C62.9379 26.8112 62.9658 26.8227 62.9949 26.8227L94.0602 26.8525ZM16.0356 26.7838C16.0427 26.7965 16.0529 26.8069 16.0654 26.8142C16.0779 26.8214 16.0921 26.8252 16.1065 26.825L47.4257 26.8387C47.4469 26.8387 47.4673 26.8303 47.4823 26.8153C47.4973 26.8003 47.5057 26.7799 47.5057 26.7587V21.7575C47.5057 21.7362 47.4973 21.7159 47.4823 21.7009C47.4673 21.6859 47.4469 21.6774 47.4257 21.6774H13.3645C13.3507 21.6776 13.3372 21.6815 13.3253 21.6885C13.3134 21.6955 13.3035 21.7055 13.2966 21.7175C13.2897 21.7294 13.286 21.743 13.2859 21.7568C13.2858 21.7707 13.2892 21.7843 13.2959 21.7964L16.0356 26.7838ZM20.1361 34.201C20.1459 34.219 20.1605 34.2341 20.1782 34.2445C20.1959 34.255 20.2161 34.2605 20.2367 34.2604H47.3914C47.4217 34.2604 47.4508 34.2484 47.4722 34.2269C47.4937 34.2055 47.5057 34.1764 47.5057 34.146V29.6276C47.5057 29.5973 47.4937 29.5682 47.4722 29.5467C47.4508 29.5253 47.4217 29.5132 47.3914 29.5132H17.7554C17.7357 29.5135 17.7165 29.519 17.6995 29.5289C17.6825 29.5389 17.6684 29.5531 17.6585 29.5701C17.6486 29.5871 17.6433 29.6064 17.643 29.6261C17.6428 29.6458 17.6476 29.6652 17.6571 29.6825L20.1361 34.201ZM90.1747 34.2604C90.1894 34.2604 90.2038 34.2563 90.2163 34.2486C90.2288 34.241 90.2389 34.23 90.2456 34.217L92.6377 29.6299C92.644 29.6177 92.647 29.6041 92.6465 29.5904C92.646 29.5767 92.6421 29.5634 92.6349 29.5517C92.6278 29.54 92.6178 29.5303 92.6059 29.5236C92.594 29.5168 92.5805 29.5133 92.5668 29.5132H62.9652C62.9439 29.5132 62.9236 29.5216 62.9086 29.5367C62.8936 29.5517 62.8851 29.572 62.8851 29.5933V34.1804C62.8851 34.2016 62.8936 34.222 62.9086 34.237C62.9236 34.252 62.9439 34.2604 62.9652 34.2604H90.1747ZM26.6835 46.0587C26.6905 46.0714 26.7008 46.0819 26.7132 46.0891C26.7257 46.0964 26.7399 46.1001 26.7544 46.0999H39.1059C39.1225 46.0994 39.1384 46.0938 39.1517 46.0839L47.3571 40.1836C47.3738 40.1713 47.385 40.1529 47.3884 40.1324C47.3918 40.1119 47.3871 40.0909 47.3754 40.0738L44.9901 36.729C44.984 36.7204 44.9762 36.7131 44.9673 36.7076C44.9583 36.702 44.9483 36.6982 44.9379 36.6965C44.9275 36.6948 44.9168 36.6952 44.9066 36.6976C44.8963 36.7001 44.8866 36.7045 44.8781 36.7107L37.7544 41.8514C37.7411 41.8614 37.7252 41.867 37.7086 41.8675H24.5223C24.5083 41.8673 24.4945 41.8708 24.4823 41.8777C24.4701 41.8845 24.4598 41.8945 24.4527 41.9065C24.4455 41.9186 24.4416 41.9323 24.4414 41.9463C24.4412 41.9603 24.4446 41.9742 24.4515 41.9864L26.6835 46.0587ZM74.3654 41.9498L71.7126 38.8132C71.6607 38.7522 71.5952 38.7217 71.5159 38.7217H63.7221C63.6215 38.7217 63.5712 38.7713 63.5712 38.8704V41.7805C63.5712 41.8766 63.6185 41.9246 63.713 41.9246H69.986C70.049 41.9246 70.1114 41.9383 70.1686 41.9647C70.2259 41.9912 70.2767 42.0298 70.3176 42.0779C71.4092 43.3561 72.484 44.6357 73.5421 45.9169C73.7776 46.2006 74.0338 46.2692 74.3791 46.2715C77.5076 46.2807 80.6445 46.2784 83.7897 46.2646C83.8751 46.2646 83.9368 46.2273 83.9749 46.1525L86.0652 42.174C86.1124 42.084 86.085 42.039 85.9828 42.039H74.5575C74.4797 42.039 74.4157 42.0093 74.3654 41.9498Z" fill="#191919"/>
</g>
<defs>
<clipPath id="clip0_413_24273">
<rect width="110" height="62" fill="white"/>
</clipPath>
</defs>
</svg>
