<svg width="200" height="80" viewBox="-19 -27.5 200 80" fill="none" xmlns="http://www.w3.org/2000/svg">
<path d="M18.2188 12.5001V21.4468H20.2947H22.3834L23.8607 19.9366L25.3508 18.4265V10.9899V3.55338H21.7848H18.2188V12.5001Z" fill="black"/>
<path d="M32.4173 3.70566C32.3791 3.79449 31.5767 7.7285 30.6342 12.4366C29.6791 17.1447 28.8767 21.1041 28.8385 21.2184C28.7748 21.4341 28.9404 21.4468 31.1946 21.4468C32.5319 21.4468 33.6272 21.4214 33.6272 21.396C33.6272 21.3326 36.1107 9.08637 36.3144 8.14729L36.4545 7.48739H39.5621C41.2687 7.48739 42.6696 7.43663 42.6696 7.37317C42.6696 7.27165 42.0965 4.39094 41.9692 3.83257L41.9055 3.55338H37.1805C33.538 3.55338 32.4555 3.59145 32.4173 3.70566Z" fill="black"/>
<path d="M42.9219 3.66759C42.9219 3.73104 43.7242 7.74119 44.7049 12.5762C45.6856 17.4112 46.4879 21.3833 46.4879 21.4087C46.4879 21.4341 47.5705 21.4468 48.895 21.4468H51.2893L49.4808 12.5381L47.6851 3.61683L45.3035 3.57876C43.8516 3.56606 42.9219 3.59145 42.9219 3.66759Z" fill="black"/>
<path d="M55.6562 12.5001V21.4468H57.9487H60.2412L60.2157 12.5381L60.1775 3.61683L57.9232 3.57876L55.6562 3.55338V12.5001Z" fill="black"/>
<path d="M61.1328 5.5203V7.4873H69.4748H77.8168V5.5203V3.55329H69.4748H61.1328V5.5203Z" fill="black"/>
<path d="M84.9129 4.14982C84.6072 4.49246 83.9449 5.21581 83.4482 5.77419L82.5312 6.78942V12.5508V18.3123L84.085 19.8859L85.6388 21.4468H86.3775H87.1162V12.5001V3.55338H86.3011C85.486 3.55338 85.4732 3.55338 84.9129 4.14982Z" fill="black"/>
<path d="M88.0617 3.71824C88.0362 3.80708 88.0235 4.68271 88.0362 5.64718L88.0745 7.42383H96.4164H104.758V5.52027V3.61672L96.4419 3.57865C89.7046 3.55327 88.1127 3.57865 88.0617 3.71824Z" fill="black"/>
<path d="M111.663 4.14982C111.357 4.49246 110.695 5.21581 110.198 5.77419L109.281 6.78942V12.5508V18.3123L110.835 19.8859L112.389 21.4468H116.248H120.107V19.5432V17.6397H117.776H115.445L114.656 16.764L113.866 15.8757V12.5001V9.11175L114.579 8.29957L115.293 7.48739H117.7H120.107V5.52038V3.55338H116.171H112.223L111.663 4.14982Z" fill="black"/>
<path d="M121.043 3.71835C121.018 3.80718 121.005 4.68282 121.018 5.64729L121.056 7.42393L123.437 7.46201L125.819 7.48739L126.52 8.27419L127.233 9.0483V12.5381V16.0153L126.443 16.8275L125.666 17.6397H123.323H120.992V19.5432V21.4468H124.915H128.825L130.328 19.8732L131.818 18.2996V12.5128V6.73866L130.391 5.13967L128.965 3.55338H125.042C121.935 3.55338 121.094 3.59145 121.043 3.71835Z" fill="black"/>
<path d="M138.195 5.12698L136.781 6.70058V12.5255L136.794 18.3376L138.259 19.8859L139.736 21.4468H143.671H147.607V19.5432V17.6397H145.276H142.945L142.156 16.8402L141.366 16.0407V12.5128V8.98485L142.028 8.2615L142.678 7.55084L145.11 7.48739L147.543 7.42393V5.52038V3.61683L143.569 3.57876L139.609 3.55338L138.195 5.12698Z" fill="black"/>
<path d="M148.426 3.71835C148.4 3.80718 148.388 4.68282 148.4 5.64729L148.439 7.42393L150.871 7.48739L153.304 7.55084L153.953 8.2615L154.616 8.98485V12.5255V16.0661L153.813 16.8529L153.011 17.6397H150.693H148.375V19.5432V21.4468H152.31H156.246L157.723 19.8986L159.2 18.3376V12.5001L159.188 6.66251L157.787 5.1016L156.373 3.55338H152.438C149.317 3.55338 148.477 3.59145 148.426 3.71835Z" fill="black"/>
<path d="M61.1328 12.5637V14.4673H68.9017H76.6705V12.5637V10.6602H68.9017H61.1328V12.5637Z" fill="black"/>
<path d="M2.80469 17.7031C2.80469 17.7539 3.50516 18.6041 4.3712 19.6067L5.92497 21.4468H11.6306H17.3236V19.5432V17.6397H10.0641C6.06506 17.6397 2.80469 17.6651 2.80469 17.7031Z" fill="black"/>
<path d="M61.1328 19.5432V21.4468H69.4748H77.8168V19.5432V17.6397H69.4748H61.1328V19.5432Z" fill="black"/>
<path d="M88.0078 19.5432V21.4468H96.4135H104.819V19.5432V17.6397H96.4135H88.0078V19.5432Z" fill="black"/>
</svg>
