<svg width="200" height="80" viewBox="-18 -29 200 80" fill="none" xmlns="http://www.w3.org/2000/svg">
<g clip-path="url(#clip0_413_24240)">
<path d="M155.585 0.767617L155.519 0.625H150.758L158.268 21.0906V21.2332H163.095L155.585 0.767617Z" fill="black"/>
<path d="M142.779 0.696309L136.945 21.2332H141.371L145.931 6.04444H151.363L149.418 0.625L142.779 0.696309Z" fill="black"/>
<path d="M5.38198 10.4656L5.31492 10.3943V6.47229L7.59477 3.90519H21.4751L28.1805 10.9647V4.04781L24.8277 0.696309L4.10794 0.625L1.02344 4.04781V8.54025L5.38198 13.3892V10.4656Z" fill="black"/>
<path d="M23.889 15.4571H23.822V15.5996L21.408 17.8815H7.52771L1.02344 10.3228V17.8102L4.37616 21.233H24.8277L28.2475 17.7388V12.8186L23.889 8.39746V15.4571Z" fill="black"/>
<path d="M74.5818 10.4656L74.5148 10.3943V6.47229L76.7946 3.90519H90.6079L97.3133 10.9647V4.04781L94.0276 0.696309L73.3078 0.625L70.1562 4.04781V8.54025L74.5818 13.3892V10.4656Z" fill="black"/>
<path d="M93.0889 15.4571H93.0219V15.5996L90.6079 17.8815H76.7276L70.1562 10.3228V17.8102L73.509 21.233H94.0276L97.3804 17.7388V12.8186L93.0889 8.39746V15.4571Z" fill="black"/>
<path d="M52.3886 0.625L49.7734 14.8867L50.8464 21.1618L52.6568 21.2332L55.2719 6.04444H58.5575V21.3757H62.9162V4.11911L59.8987 0.625H52.3886Z" fill="black"/>
<path d="M38.1067 0.696289L35.1562 4.26172V21.3045H35.4245C35.8268 21.3045 37.9726 21.3045 39.3806 21.3045H39.5818V6.11574H42.8675L45.2815 21.3757H49.7071L46.0861 0.696289H38.1067Z" fill="black"/>
<path d="M123.329 0.625L127.822 4.33304V15.5285L124.603 17.8816H109.583V4.04781H125.341L121.251 0.625H105.023V21.2332H129.029L132.247 17.8104V4.04781L128.157 0.625H123.329Z" fill="black"/>
</g>
<defs>
<clipPath id="clip0_413_24240">
<rect width="164" height="22" fill="white"/>
</clipPath>
</defs>
</svg>
